<?xml version="1.0" encoding="UTF-8"?>
<svg id="Layer_2" data-name="Layer 2" xmlns="http://www.w3.org/2000/svg" viewBox="0 0 174.75 174.76">
  <defs>
    <style>
      .cls-1 {
        fill: #fff;
      }
    </style>
  </defs>
  <g id="Layer_1-2" data-name="Layer 1">
    <path id="bluesky-icon" class="cls-1" d="M149.16,25.59C133.35,9.78,111.5,0,87.38,0S41.4,9.78,25.59,25.59,0,63.25,0,87.38c0,48.26,39.12,87.38,87.38,87.38,24.12,0,45.97-9.78,61.78-25.59s25.59-37.66,25.59-61.79-9.78-45.98-25.59-61.79ZM144.93,81.89c-4.35,15.55-20.2,19.52-34.3,17.12,24.65,4.19,30.92,18.09,17.38,31.99-25.72,26.39-36.97-6.63-39.86-15.08-.52-1.56-.77-2.28-.77-1.66-.01-.62-.26.1-.78,1.66-2.89,8.45-14.13,41.47-39.85,15.08-13.55-13.9-7.28-27.8,17.37-31.99-14.1,2.4-29.95-1.57-34.3-17.12-1.26-4.47-3.39-32.01-3.39-35.74,0-18.63,16.34-12.78,26.42-5.21,13.98,10.49,29.01,31.77,34.53,43.18,5.52-11.41,20.55-32.69,34.52-43.18,10.08-7.57,26.42-13.42,26.42,5.21,0,3.73-2.13,31.27-3.39,35.74Z"/>
  </g>
</svg>