<?xml version="1.0" encoding="UTF-8"?>
<svg id="Layer_2" data-name="Layer 2" xmlns="http://www.w3.org/2000/svg" viewBox="0 0 174.75 174.75">
  <defs>
    <style>
      .cls-1 {
        fill: #fff;
      }
    </style>
  </defs>
  <g id="Layer_1-2" data-name="Layer 1">
    <path id="facebook-icon" class="cls-1" d="M149.16,25.59C133.35,9.78,111.5,0,87.38,0S41.4,9.78,25.59,25.59C9.78,41.41,0,63.25,0,87.38c0,48.25,39.12,87.37,87.38,87.37,24.12,0,45.97-9.78,61.78-25.59s25.59-37.65,25.59-61.78-9.78-45.97-25.59-61.79ZM141.23,135.29c0,3.29-2.66,5.95-5.95,5.95h-27.39v-41.65h14.04l2.1-16.31h-16.14v-10.39c0-1.58.15-2.98.59-4.16.06-.17.13-.33.21-.49.09-.18.18-.35.29-.52.1-.15.2-.29.3-.42h0c.11-.14.22-.26.34-.38l.25-.25c1.2-1.09,3.12-1.7,6.07-1.7h8.57v-14.54c-1.49-.2-6.6-.63-12.54-.63-12.42,0-20.91,7.57-20.91,21.49v11.99h-14v16.31h14v41.65h-51.6c-3.28,0-5.94-2.67-5.94-5.95V39.46c0-3.28,2.66-5.94,5.94-5.94h95.83c3.28,0,5.94,2.66,5.94,5.94v95.83Z"/>
  </g>
</svg>