<?xml version="1.0" encoding="UTF-8"?>
<svg id="Layer_2" data-name="Layer 2" xmlns="http://www.w3.org/2000/svg" viewBox="0 0 174.75 174.75">
  <defs>
    <style>
      .cls-1 {
        fill: #fff;
      }
    </style>
  </defs>
  <g id="Layer_1-2" data-name="Layer 1">
    <g id="instagram-icon">
      <path class="cls-1" d="M66.76,87.38c0-11.39,9.23-20.62,20.61-20.62s20.62,9.23,20.62,20.62-9.23,20.61-20.62,20.61-20.61-9.23-20.61-20.61Z"/>
      <path class="cls-1" d="M133.37,60.69c-.37-4.52-1.04-6.83-1.86-8.44-1.98-3.88-5.13-7.03-9.01-9.01-1.61-.82-3.92-1.49-8.44-1.86-4.64-.38-10.64-.39-19.47-.39h-14.43c-8.83,0-14.83.01-19.47.39-4.52.37-6.83,1.04-8.45,1.86-3.87,1.98-7.03,5.13-9.01,9.01-.82,1.61-1.49,3.92-1.85,8.44-.38,4.64-.39,10.64-.39,19.47v14.43c0,8.83.01,14.83.39,19.47.36,4.52,1.03,6.83,1.85,8.45,1.98,3.88,5.14,7.03,9.01,9.01,1.62.82,3.93,1.49,8.45,1.86,4.64.37,10.64.38,19.47.38h14.43c8.83,0,14.83-.01,19.47-.38,4.52-.37,6.83-1.04,8.44-1.86,3.88-1.98,7.03-5.13,9.01-9.01.82-1.62,1.49-3.93,1.86-8.45.38-4.64.39-10.64.39-19.47v-14.43c0-8.83-.01-14.83-.39-19.47ZM87.37,118.3c-17.08,0-30.92-13.84-30.92-30.92s13.84-30.93,30.92-30.93,30.93,13.85,30.93,30.93-13.85,30.92-30.93,30.92ZM118.3,61.61c-2.85,0-5.16-2.31-5.16-5.16s2.31-5.15,5.16-5.15,5.15,2.31,5.15,5.15-2.31,5.16-5.15,5.16ZM133.37,60.69c-.37-4.52-1.04-6.83-1.86-8.44-1.98-3.88-5.13-7.03-9.01-9.01-1.61-.82-3.92-1.49-8.44-1.86-4.64-.38-10.64-.39-19.47-.39h-14.43c-8.83,0-14.83.01-19.47.39-4.52.37-6.83,1.04-8.45,1.86-3.87,1.98-7.03,5.13-9.01,9.01-.82,1.61-1.49,3.92-1.85,8.44-.38,4.64-.39,10.64-.39,19.47v14.43c0,8.83.01,14.83.39,19.47.36,4.52,1.03,6.83,1.85,8.45,1.98,3.88,5.14,7.03,9.01,9.01,1.62.82,3.93,1.49,8.45,1.86,4.64.37,10.64.38,19.47.38h14.43c8.83,0,14.83-.01,19.47-.38,4.52-.37,6.83-1.04,8.44-1.86,3.88-1.98,7.03-5.13,9.01-9.01.82-1.62,1.49-3.93,1.86-8.45.38-4.64.39-10.64.39-19.47v-14.43c0-8.83-.01-14.83-.39-19.47ZM87.37,118.3c-17.08,0-30.92-13.84-30.92-30.92s13.84-30.93,30.92-30.93,30.93,13.85,30.93,30.93-13.85,30.92-30.93,30.92ZM118.3,61.61c-2.85,0-5.16-2.31-5.16-5.16s2.31-5.15,5.16-5.15,5.15,2.31,5.15,5.15-2.31,5.16-5.15,5.16ZM149.16,25.59C133.35,9.78,111.5,0,87.37,0S41.4,9.78,25.59,25.59,0,63.25,0,87.38c0,48.25,39.12,87.37,87.37,87.37,24.13,0,45.98-9.78,61.79-25.59s25.59-37.66,25.59-61.78-9.78-45.98-25.59-61.79ZM144.07,94.59c0,17.32,0,25.98-3.37,32.6-2.97,5.82-7.7,10.55-13.52,13.51-6.61,3.37-15.27,3.37-32.59,3.37h-14.43c-17.32,0-25.98,0-32.6-3.37-5.81-2.96-10.54-7.69-13.51-13.51-3.37-6.62-3.37-15.28-3.37-32.6v-14.43c0-17.32,0-25.98,3.37-32.59,2.97-5.82,7.7-10.55,13.51-13.51,6.62-3.37,15.28-3.37,32.6-3.37h14.43c17.32,0,25.98,0,32.59,3.37,5.82,2.96,10.55,7.69,13.52,13.51,3.37,6.61,3.37,15.27,3.37,32.59v14.43ZM131.51,52.25c-1.98-3.88-5.13-7.03-9.01-9.01-1.61-.82-3.92-1.49-8.44-1.86-4.64-.38-10.64-.39-19.47-.39h-14.43c-8.83,0-14.83.01-19.47.39-4.52.37-6.83,1.04-8.45,1.86-3.87,1.98-7.03,5.13-9.01,9.01-.82,1.61-1.49,3.92-1.85,8.44-.38,4.64-.39,10.64-.39,19.47v14.43c0,8.83.01,14.83.39,19.47.36,4.52,1.03,6.83,1.85,8.45,1.98,3.88,5.14,7.03,9.01,9.01,1.62.82,3.93,1.49,8.45,1.86,4.64.37,10.64.38,19.47.38h14.43c8.83,0,14.83-.01,19.47-.38,4.52-.37,6.83-1.04,8.44-1.86,3.88-1.98,7.03-5.13,9.01-9.01.82-1.62,1.49-3.93,1.86-8.45.38-4.64.39-10.64.39-19.47v-14.43c0-8.83-.01-14.83-.39-19.47-.37-4.52-1.04-6.83-1.86-8.44ZM87.37,118.3c-17.08,0-30.92-13.84-30.92-30.92s13.84-30.93,30.92-30.93,30.93,13.85,30.93,30.93-13.85,30.92-30.93,30.92ZM118.3,61.61c-2.85,0-5.16-2.31-5.16-5.16s2.31-5.15,5.16-5.15,5.15,2.31,5.15,5.15-2.31,5.16-5.15,5.16ZM133.37,60.69c-.37-4.52-1.04-6.83-1.86-8.44-1.98-3.88-5.13-7.03-9.01-9.01-1.61-.82-3.92-1.49-8.44-1.86-4.64-.38-10.64-.39-19.47-.39h-14.43c-8.83,0-14.83.01-19.47.39-4.52.37-6.83,1.04-8.45,1.86-3.87,1.98-7.03,5.13-9.01,9.01-.82,1.61-1.49,3.92-1.85,8.44-.38,4.64-.39,10.64-.39,19.47v14.43c0,8.83.01,14.83.39,19.47.36,4.52,1.03,6.83,1.85,8.45,1.98,3.88,5.14,7.03,9.01,9.01,1.62.82,3.93,1.49,8.45,1.86,4.64.37,10.64.38,19.47.38h14.43c8.83,0,14.83-.01,19.47-.38,4.52-.37,6.83-1.04,8.44-1.86,3.88-1.98,7.03-5.13,9.01-9.01.82-1.62,1.49-3.93,1.86-8.45.38-4.64.39-10.64.39-19.47v-14.43c0-8.83-.01-14.83-.39-19.47ZM87.37,118.3c-17.08,0-30.92-13.84-30.92-30.92s13.84-30.93,30.92-30.93,30.93,13.85,30.93,30.93-13.85,30.92-30.93,30.92ZM118.3,61.61c-2.85,0-5.16-2.31-5.16-5.16s2.31-5.15,5.16-5.15,5.15,2.31,5.15,5.15-2.31,5.16-5.15,5.16ZM133.37,60.69c-.37-4.52-1.04-6.83-1.86-8.44-1.98-3.88-5.13-7.03-9.01-9.01-1.61-.82-3.92-1.49-8.44-1.86-4.64-.38-10.64-.39-19.47-.39h-14.43c-8.83,0-14.83.01-19.47.39-4.52.37-6.83,1.04-8.45,1.86-3.87,1.98-7.03,5.13-9.01,9.01-.82,1.61-1.49,3.92-1.85,8.44-.38,4.64-.39,10.64-.39,19.47v14.43c0,8.83.01,14.83.39,19.47.36,4.52,1.03,6.83,1.85,8.45,1.98,3.88,5.14,7.03,9.01,9.01,1.62.82,3.93,1.49,8.45,1.86,4.64.37,10.64.38,19.47.38h14.43c8.83,0,14.83-.01,19.47-.38,4.52-.37,6.83-1.04,8.44-1.86,3.88-1.98,7.03-5.13,9.01-9.01.82-1.62,1.49-3.93,1.86-8.45.38-4.64.39-10.64.39-19.47v-14.43c0-8.83-.01-14.83-.39-19.47ZM87.37,118.3c-17.08,0-30.92-13.84-30.92-30.92s13.84-30.93,30.92-30.93,30.93,13.85,30.93,30.93-13.85,30.92-30.93,30.92ZM118.3,61.61c-2.85,0-5.16-2.31-5.16-5.16s2.31-5.15,5.16-5.15,5.15,2.31,5.15,5.15-2.31,5.16-5.15,5.16Z"/>
    </g>
  </g>
</svg>