<?xml version="1.0" encoding="UTF-8"?>
<svg id="Layer_2" data-name="Layer 2" xmlns="http://www.w3.org/2000/svg" viewBox="0 0 174.76 174.75">
  <defs>
    <style>
      .cls-1 {
        fill: #fff;
      }
    </style>
  </defs>
  <g id="Layer_1-2" data-name="Layer 1">
    <g id="mastadon-icon">
      <path class="cls-1" d="M119.32,52.59c3.37,3.88,5.05,9.12,5.05,15.7v32.26h-12.79v-31.3c0-6.59-2.74-9.95-8.33-9.95-6.14,0-9.22,3.97-9.22,11.83v17.13h-12.7v-17.13c0-7.86-3.09-11.83-9.23-11.83-5.55,0-8.32,3.36-8.32,9.95v31.3h-12.78v-32.26c0-6.58,1.69-11.81,5.06-15.7,3.46-3.87,8.02-5.85,13.68-5.85,6.53,0,11.48,2.51,14.77,7.53l3.18,5.34,3.18-5.34c3.29-5.02,8.24-7.53,14.78-7.53,5.64,0,10.19,1.98,13.67,5.85Z"/>
      <path class="cls-1" d="M149.17,25.59C133.36,9.78,111.51,0,87.38,0S41.4,9.78,25.59,25.59C9.78,41.4,0,63.25,0,87.38c0,48.25,39.12,87.37,87.38,87.37,24.13,0,45.98-9.78,61.79-25.59s25.59-37.66,25.59-61.78-9.78-45.98-25.59-61.79ZM143.74,81.62c0,.77-.11,7.69-.16,8.41-1.17,18.55-12.74,25.88-24.89,28.21-.17.05-.35.08-.55.12-7.71,1.5-15.96,1.91-23.79,2.13-1.87.05-3.75.05-5.61.05-7.79,0-15.55-.92-23.12-2.75-.04-.01-.09-.01-.13,0-.03,0-.07.03-.11.05-.03.03-.06.06-.07.1-.01.04-.03.07-.03.12.23,2.47.76,4.89,1.59,7.22,1.05,2.69,4.72,9.15,18.34,9.15,7.92.01,15.81-.9,23.51-2.74.03-.01.07-.01.11-.01.05.01.08.03.11.06.04.02.06.05.07.09.03.03.03.07.03.11v9.11s-.02.09-.03.12c-.02.04-.05.07-.08.1-2.52,1.81-5.94,2.86-8.86,3.79-1.29.4-2.6.76-3.92,1.07-12.01,2.74-24.55,2.07-36.22-1.91-10.89-3.82-22-13.2-24.75-24.45-1.47-6.1-2.5-12.29-3.09-18.53-.85-9.39-.93-18.82-1.3-28.25-.26-6.57-.11-13.75,1.28-20.21,2.89-13.15,14.8-22.33,27.84-24.26,2.27-.33,6.52-1.55,26.39-1.55h.15c19.86,0,28.43,1.22,30.69,1.55,13.42,1.99,24.72,12.21,26.48,25.2.95,9.64.12,25.33.12,27.9Z"/>
    </g>
  </g>
</svg>