<?xml version="1.0" encoding="UTF-8"?>
<svg id="Layer_2" data-name="Layer 2" xmlns="http://www.w3.org/2000/svg" viewBox="0 0 174.75 174.75">
  <defs>
    <style>
      .cls-1 {
        fill: #fff;
      }
    </style>
  </defs>
  <g id="Layer_1-2" data-name="Layer 1">
    <g id="threads-icon">
      <path class="cls-1" d="M92.89,88.84c4.81,0,7.77.34,11.75,1.24-1.26,16.51-9.33,18.69-17.17,18.69-4.29,0-12.31-2.25-12.31-9.01,0-4.22,2.03-10.92,17.73-10.92Z"/>
      <path class="cls-1" d="M149.16,25.59C133.35,9.78,111.51,0,87.38,0S41.41,9.78,25.59,25.59C9.78,41.4,0,63.25,0,87.37c0,48.26,39.12,87.38,87.38,87.38,24.13,0,45.97-9.78,61.78-25.59s25.59-37.66,25.59-61.79-9.78-45.97-25.59-61.78ZM87.8,137.99c21.36,0,37.3-11.13,37.3-27.42,0-11.09-9.3-16.4-9.77-16.4-1.82,9.51-6.69,25.52-28.05,25.52-12.44,0-23.17-8.62-23.17-19.91,0-16.12,15.25-21.95,27.31-21.95,4.51,0,9.95.3,12.79.88,0-4.91-4.15-13.32-14.62-13.32-9.61-.01-12.05,3.12-15.13,6.68-2.07-1.38-8.97-6.18-8.97-6.18,5.81-8.34,13.49-11.58,24.1-11.58,7.5,0,13.87,2.52,18.41,7.31,4.55,4.79,7.15,11.64,7.74,20.39,2.52,1.06,4.85,2.3,6.96,3.73,8.53,5.75,13.23,14.34,13.23,24.19,0,20.94-17.13,39.13-48.14,39.13-26.61,0-54.27-15.52-54.27-61.73s26.79-61.64,54.2-61.64c12.66,0,42.35,1.87,53.52,38.83l-10.48,2.72c-8.63-26.33-26.73-30.52-43.33-30.52-27.43,0-42.95,16.74-42.95,52.36,0,31.94,17.35,48.91,43.32,48.91Z"/>
    </g>
  </g>
</svg>