<?xml version="1.0" encoding="UTF-8"?>
<svg id="Layer_2" data-name="Layer 2" xmlns="http://www.w3.org/2000/svg" viewBox="0 0 174.76 174.75">
  <defs>
    <style>
      .cls-1 {
        fill: #fff;
      }
    </style>
  </defs>
  <g id="Layer_1-2" data-name="Layer 1">
    <g id="tripadvisor-icon">
      <path class="cls-1" d="M54.81,83.81c-6.46,0-11.68,5.22-11.68,11.68s5.24,11.69,11.68,11.69,11.66-5.25,11.66-11.69-5.19-11.68-11.66-11.68ZM54.86,103.59c-4.48,0-8.12-3.64-8.12-8.12s3.64-8.12,8.12-8.12,8.12,3.63,8.12,8.12-3.63,8.12-8.12,8.12ZM54.81,83.81c-6.46,0-11.68,5.22-11.68,11.68s5.24,11.69,11.68,11.69,11.66-5.25,11.66-11.69-5.19-11.68-11.66-11.68ZM54.86,103.59c-4.48,0-8.12-3.64-8.12-8.12s3.64-8.12,8.12-8.12,8.12,3.63,8.12,8.12-3.63,8.12-8.12,8.12ZM54.81,71.01c-13.51,0-24.48,10.97-24.48,24.48s10.94,24.49,24.48,24.49,24.46-10.97,24.49-24.49c0-13.51-10.97-24.48-24.49-24.48ZM54.79,111.81c-9.01,0-16.32-7.31-16.32-16.32s7.31-16.31,16.34-16.31,16.32,7.3,16.29,16.31c0,9.01-7.3,16.32-16.31,16.32ZM54.81,83.81c-6.46,0-11.68,5.22-11.68,11.68s5.24,11.69,11.68,11.69,11.66-5.25,11.66-11.69-5.19-11.68-11.66-11.68ZM54.86,103.59c-4.48,0-8.12-3.64-8.12-8.12s3.64-8.12,8.12-8.12,8.12,3.63,8.12,8.12-3.63,8.12-8.12,8.12ZM54.81,83.81c-6.46,0-11.68,5.22-11.68,11.68s5.24,11.69,11.68,11.69,11.66-5.25,11.66-11.69-5.19-11.68-11.66-11.68ZM54.86,103.59c-4.48,0-8.12-3.64-8.12-8.12s3.64-8.12,8.12-8.12,8.12,3.63,8.12,8.12-3.63,8.12-8.12,8.12ZM54.81,83.81c-6.46,0-11.68,5.22-11.68,11.68s5.24,11.69,11.68,11.69,11.66-5.25,11.66-11.69-5.19-11.68-11.66-11.68ZM54.86,103.59c-4.48,0-8.12-3.64-8.12-8.12s3.64-8.12,8.12-8.12,8.12,3.63,8.12,8.12-3.63,8.12-8.12,8.12Z"/>
      <g>
        <path class="cls-1" d="M87.37,93.53c-.95-15.78-13.09-28.53-28.59-30.41,7.79-5.6,17.72-8.35,28.54-8.35s20.74,2.75,28.53,8.35c-15.45,1.93-27.57,14.66-28.48,30.41Z"/>
        <g>
          <path class="cls-1" d="M119.97,71.01c-13.51,0-24.48,10.97-24.48,24.48s10.97,24.49,24.48,24.49,24.46-10.97,24.49-24.49c0-13.51-10.97-24.48-24.49-24.48ZM119.97,111.81c-9.01,0-16.31-7.31-16.31-16.32s7.3-16.31,16.31-16.31,16.32,7.3,16.32,16.31-7.31,16.32-16.32,16.32ZM119.97,83.81c-6.46,0-11.68,5.22-11.68,11.68s5.24,11.69,11.68,11.69,11.66-5.25,11.66-11.69-5.19-11.68-11.66-11.68ZM120.02,103.59c-4.48,0-8.12-3.64-8.12-8.12s3.64-8.12,8.12-8.12,8.12,3.63,8.12,8.12-3.63,8.12-8.12,8.12Z"/>
          <path class="cls-1" d="M149.17,25.59C133.36,9.78,111.51,0,87.38,0S41.4,9.78,25.59,25.59C9.78,41.4,0,63.24,0,87.37c0,48.26,39.12,87.38,87.38,87.38,24.13,0,45.98-9.78,61.79-25.59,15.81-15.82,25.59-37.66,25.59-61.79s-9.78-45.97-25.59-61.78ZM119.95,128.1c-8.35,0-15.94-3.13-21.72-8.27l.13.3-10.92,7.94-11.04-8.12c-5.76,5.09-13.32,8.17-21.59,8.17-18.02,0-32.63-14.61-32.63-32.63,0-9.03,3.67-17.2,9.6-23.11l-9.6-9.52h19.5c10.89-8.85,28.84-16.24,45.64-16.24s34.87,7.39,45.76,16.24h19.45l-9.6,9.52c5.93,5.91,9.62,14.08,9.65,23.09,0,18.02-14.61,32.63-32.63,32.63Z"/>
        </g>
      </g>
    </g>
  </g>
</svg>