<?xml version="1.0" encoding="UTF-8"?>
<svg id="Layer_2" data-name="Layer 2" xmlns="http://www.w3.org/2000/svg" viewBox="0 0 174.75 174.75">
  <defs>
    <style>
      .cls-1 {
        fill: #fff;
      }
    </style>
  </defs>
  <g id="Layer_1-2" data-name="Layer 1">
    <g id="youtube-icon">
      <polygon class="cls-1" points="74.53 68.31 107.88 87.32 74.53 106.31 74.53 68.31"/>
      <path class="cls-1" d="M149.16,25.59C133.35,9.78,111.5,0,87.38,0S41.4,9.78,25.59,25.59,0,63.25,0,87.37c0,48.26,39.12,87.38,87.38,87.38,24.12,0,45.97-9.78,61.78-25.59s25.59-37.66,25.59-61.79-9.78-45.97-25.59-61.78ZM148.74,118.48c-1.43,5.38-6.09,9.7-11.47,11.13-13.27,3.57-86.75,3.57-99.65,0-5.38-1.43-10.04-5.75-11.47-11.13-3.59-13.97-3.22-48.74,0-62.35,1.43-5.38,6.09-9.67,11.47-11.1,14-3.59,87.47-3.25,99.65,0,5.38,1.43,10.04,5.72,11.47,11.1,3.22,13.27,3.22,49.45,0,62.35Z"/>
    </g>
  </g>
</svg>